<?xml version="1.0" encoding="UTF-8" standalone="no"?> <svg id="Layer_1" data-name="Layer 1" xmlns="http://www.w3.org/2000/svg" viewBox="0 0 128 128"><defs><style>.cls-1{fill:#1d75b8;}.cls-2{fill:#2d3e50;}</style></defs><title>b</title><circle class="cls-1" cx="43.51861" cy="90.51221" r="12.69952"/><path class="cls-1" d="M59.6691,77.81567a12.57226,12.57226,0,0,0-4.52114.83675A16.66894,16.66894,0,0,1,57.82015,82.067a8.34433,8.34433,0,0,1,1.84895-.20247,8.651,8.651,0,0,1,0,17.30192,8.34433,8.34433,0,0,1-1.84895-.20247,16.66894,16.66894,0,0,1-2.67219,3.41454,12.57226,12.57226,0,0,0,4.52114.83675,12.69977,12.69977,0,0,0,0-25.39954Z"/><path class="cls-2" d="M85.42457,55.96906h-67.661A16.25747,16.25747,0,0,0,1.52439,72.208v36.61177a16.25752,16.25752,0,0,0,16.23914,16.23914h67.661a16.25754,16.25754,0,0,0,16.239-16.23914V72.208A16.25749,16.25749,0,0,0,85.42457,55.96906Zm8.10058,52.85066a8.10969,8.10969,0,0,1-8.10058,8.10083h-67.661a8.10983,8.10983,0,0,1-8.10075-8.10083V72.208a8.10978,8.10978,0,0,1,8.10075-8.10058h67.661A8.10964,8.10964,0,0,1,93.52515,72.208Z"/><path class="cls-1" d="M112.55831,12.78473,45.58879,3.10917A16.256,16.256,0,0,0,27.19617,16.8585l-4.77,33.00547h8.22423l2.33751-16.1772L115.99,45.67726l-2.975,20.57189a8.103,8.103,0,0,1-5.24923,6.45641v8.38708a16.26486,16.26486,0,0,0,13.30616-13.677l5.23564-36.23821A16.256,16.256,0,0,0,112.55831,12.78473Zm5.69232,17.23075-.45215,3.13323-83.00207-11.995.45668-3.13323a8.10993,8.10993,0,0,1,9.17374-6.85889l66.965,9.67564A8.11342,8.11342,0,0,1,118.25063,30.01548Z"/></svg>