<?xml version="1.0" encoding="UTF-8" standalone="no"?> <svg id="Layer_1" data-name="Layer 1" xmlns="http://www.w3.org/2000/svg" viewBox="0 0 128 128"><defs><style>.cls-1{fill:#1d75b8;}.cls-2{fill:#2d3e50;}</style></defs><title>b</title><path class="cls-1" d="M104.89411,30.582c-.28426-.79273-.5843-1.56968-.90014-2.30874A43.38077,43.38077,0,0,0,64.33477,1.737l-.34425-.00316-.29688.00316A43.41352,43.41352,0,0,0,24.006,28.27326c-.31583.74852-.61586,1.52232-.89379,2.3056a43.41675,43.41675,0,0,0-.00316,29.11036c.2811.78958.58428,1.56652.90012,2.30556A43.47813,43.47813,0,0,0,37.04046,79.14454l2.14766-3.97317a38.92431,38.92431,0,0,1-9.17179-11.00995l-1.317-2.34982h13.505l.29058,1.20963q.559,2.3167,1.257,4.4817A6.84058,6.84058,0,0,1,47.185,65.69c.20846-.04422.42006-.08528.63483-.1295-.17687-.5748-.34427-1.15908-.50849-1.75289l-.54955-1.996h6.16505a12.01635,12.01635,0,0,1-.44848-1.66129l-.54008-2.78563h-6.0482L45.688,56.01923a75.40478,75.40478,0,0,1,0-21.76725l.20214-1.34543H61.77969v7.15361a11.82025,11.82025,0,0,1,1.53495-.09791h1.41809a12.30614,12.30614,0,0,1,1.49074.0916V32.90655H82.113l.20212,1.34543a75.40478,75.40478,0,0,1,0,21.76725L82.113,57.36468H76.11221l-.54008,2.78563a11.59555,11.59555,0,0,1-.45164,1.66129h6.11769l-.54639,1.996q-.24636.89071-.50851,1.75289c.21478.04422.42323.08844.63167.1295a6.83742,6.83742,0,0,1,3.43627,1.81288q.70117-2.16027,1.257-4.4817l.29056-1.20963H99.307L97.99,64.16143a38.93,38.93,0,0,1-9.175,11.00678l2.14452,3.97633A43.49044,43.49044,0,0,0,103.994,61.99794c.31583-.74532.619-1.5223.897-2.30556a43.46834,43.46834,0,0,0,.00316-29.11037ZM41.12734,55.58022l.23371,1.78447H26.9938L26.659,56.23716a38.989,38.989,0,0,1,0-22.20308l.33478-1.12753H41.36106L41.12734,34.691a81.41678,81.41678,0,0,0,0,20.88922ZM42.49491,27.25l-.29058,1.20965h-13.505l1.317-2.3498A38.8226,38.8226,0,0,1,46.13646,10.52028l4.96175-2.56142-2.88672,4.77856c-.43269.71695-.8559,1.475-1.26017,2.25822A54.10823,54.10823,0,0,0,42.49491,27.25Zm19.28478,1.20965H46.76182l.54955-1.99607c2.61825-9.54133,7.05255-16.51492,12.169-19.13949l2.29928-1.18123Zm4.44378,0V6.14281l2.30242,1.17807c5.11334,2.62457,9.54764,9.60132,12.16591,19.14266l.54639,1.99607ZM85.50825,27.25A54.06332,54.06332,0,0,0,81.055,14.99879c-.40742-.78326-.83064-1.54443-1.26333-2.26138L76.91126,7.962l4.95543,2.55826A38.84186,38.84186,0,0,1,97.99,26.10665l1.317,2.353H85.79882Zm15.839,28.9872-.33794,1.12753H86.64208l.23371-1.78447a80.03165,80.03165,0,0,0,.67273-10.44461A80.62623,80.62623,0,0,0,86.879,34.691l-.23371-1.78445h14.3641l.33794,1.12753a39.06188,39.06188,0,0,1,0,22.20308Z"/><path class="cls-2" d="M64.02466,65.72505a7.81037,7.81037,0,0,0,7.67047-6.32677l1.19558-6.147a8.23277,8.23277,0,0,0-8.15723-9.34207H63.31583a8.23271,8.23271,0,0,0-8.15719,9.34207l1.19552,6.147A7.81044,7.81044,0,0,0,64.02466,65.72505Z"/><path class="cls-2" d="M89.1903,84.16935,87.203,80.49042l-4.88586-9.0398a4.95638,4.95638,0,0,0-.75386-1.051,2.9167,2.9167,0,0,0-1.545-.84194c-2.01525-.416-7.54773-1.5494-8.84941-1.723a1.69977,1.69977,0,0,0-.68828.0485l-.18419-.063-3.57714,3.57714L64.795,73.31674l-.63012.635-.14016-.14018v-.04665l-.02334.02333-.02334-.02333v.04665l-.14016.14018-.63012-.635-1.9243-1.91944-3.57714-3.57714-.18419.063a1.69967,1.69967,0,0,0-.68826-.0485c-1.30168.17357-6.83418,1.30694-8.84941,1.723a2.91663,2.91663,0,0,0-1.545.84194,4.955,4.955,0,0,0-.75386,1.051l-4.88588,9.0398-1.98728,3.67893-.223.412a3.61914,3.61914,0,0,0-.03877,3.33l6.66955,13.21311a3.39255,3.39255,0,0,0,4.32848,1.59952,3.23647,3.23647,0,0,0,.635-.35381V112.612a13.64463,13.64463,0,0,0,13.6542,13.6542c.05482,0,.109-.00281.16351-.00413.05453.00131.1087.00413.16351.00413A13.63954,13.63954,0,0,0,77.819,112.612V102.37013a3.23592,3.23592,0,0,0,.635.35381,3.39253,3.39253,0,0,0,4.32846-1.59952L89.452,87.91131a3.61914,3.61914,0,0,0-.03875-3.33ZM50.18361,95.48244l-3.63048-8.65689,3.63048-4.82286Zm27.63544,0V82.00269l3.63048,4.82286Z"/></svg>