<?xml version="1.0" encoding="UTF-8" standalone="no"?> <svg id="Layer_1" data-name="Layer 1" xmlns="http://www.w3.org/2000/svg" viewBox="0 0 128 128"><defs><style>.cls-1{fill:#1d75b8;}.cls-2{fill:#2d3e50;}</style></defs><title>b</title><path class="cls-1" d="M77.41465,74.59287v-46.478H89.54278v46.478Z"/><path class="cls-1" d="M71.12046,74.62845H59.008V51.86085H71.12046Z"/><path class="cls-1" d="M40.6166,61.69358H52.68045V74.59835H40.6166Z"/><path class="cls-1" d="M52.876,43.076a10.22941,10.22941,0,0,0-2.18207-1.46089,24.82327,24.82327,0,0,0-2.73609-1.17757q-.97406-.33682-1.66187-.62263a7.3921,7.3921,0,0,1-1.15813-.5881,2.00983,2.00983,0,0,1-.68826-.68826,1.841,1.841,0,0,1-.21813-.92308,1.68956,1.68956,0,0,1,.705-1.41012,3.88227,3.88227,0,0,1,2.31627-.537,13.69632,13.69632,0,0,1,3.07177.33553,15.541,15.541,0,0,1,2.56825.80579l1.04085-4.02844a13.30241,13.30241,0,0,0-1.99754-.67145,18.87165,18.87165,0,0,0-3.00477-.50361V28.11486H44.7013v3.62569a8.455,8.455,0,0,0-2.55135.85608,5.69946,5.69946,0,0,0-1.74577,1.42669,5.63962,5.63962,0,0,0-.99032,1.86309,7.12154,7.12154,0,0,0-.319,2.132,5.13933,5.13933,0,0,0,1.89692,4.19628,8.72253,8.72253,0,0,0,1.91337,1.19175q1.05779.487,2.16538.8897,1.14108.403,2.01421.75524a8.682,8.682,0,0,1,1.44374.72186,2.96116,2.96116,0,0,1,.87279.82248,1.92292,1.92292,0,0,1,.302,1.09116,1.823,1.823,0,0,1-.75524,1.561,5.03815,5.03815,0,0,1-2.80331.5538,12.335,12.335,0,0,1-3.441-.4699,17.64319,17.64319,0,0,1-2.80309-1.04061l-1.4435,3.86061a22.88093,22.88093,0,0,0,2.266.9231,15.701,15.701,0,0,0,3.97816.75548v3.99482h4.22988V53.72956a8.86412,8.86412,0,0,0,2.76971-.87233,6.16464,6.16464,0,0,0,1.82971-1.443,5.17083,5.17083,0,0,0,1.007-1.82855,6.80186,6.80186,0,0,0,.3023-1.99639,6.02219,6.02219,0,0,0-.52042-2.58381A5.955,5.955,0,0,0,52.876,43.076Z"/><path class="cls-2" d="M119.30487,7.95747H8.69513A7.59738,7.59738,0,0,0,1.09658,15.556V91.93315a7.603,7.603,0,0,0,7.59855,7.58551h37.9013L39.52018,117.588a1.79573,1.79573,0,0,0,1.67112,2.45449H86.58021a1.79893,1.79893,0,0,0,1.67767-2.435L81.40351,99.51866h37.90136a7.603,7.603,0,0,0,7.59855-7.58551V15.556A7.59738,7.59738,0,0,0,119.30487,7.95747Zm-.56142,78.29633H9.2565V18.67638a1.99173,1.99173,0,0,1,1.71685-2.18687H117.0201a2.00087,2.00087,0,0,1,1.72335,2.18687Z"/></svg>